<?xml version="1.0" encoding="iso-8859-1"?>
<!-- Generator: Adobe Illustrator 19.0.0, SVG Export Plug-In . SVG Version: 6.00 Build 0)  -->
<svg version="1.1" id="Capa_1" xmlns="http://www.w3.org/2000/svg" xmlns:xlink="http://www.w3.org/1999/xlink" x="0px" y="0px"
	 viewBox="0 0 512.002 512.002" style="enable-background:new 0 0 512.002 512.002;" xml:space="preserve" height="80">
<path style="fill:#EF9F67;" d="M430.905,112.251c2.753,3.463,4.41,7.838,4.41,12.606V135v71v10.143h-40.571V206H117.257v10.143
	H76.685V206v-71v-10.143c0-4.768,1.656-9.143,4.41-12.606c-4.074-3.889-6.617-9.369-6.617-15.445
	c0-11.794,9.561-21.355,21.355-21.355s21.355,9.561,21.355,21.355c0,5.457-2.05,10.434-5.418,14.209
	c3.393,3.626,5.485,8.484,5.485,13.842c0,5.602,4.541,10.143,10.143,10.143H384.6c5.602,0,10.143-4.541,10.143-10.143
	c0-5.358,2.093-10.216,5.485-13.842c-3.368-3.775-5.418-8.752-5.418-14.209c0-11.794,9.561-21.355,21.355-21.355
	s21.355,9.561,21.355,21.355C437.521,102.883,434.979,108.362,430.905,112.251z"/>
<path style="fill:#DE925F;" d="M96.423,206v10.143H76.685V206v-71v-10.143c0-4.768,1.656-9.143,4.41-12.606
	c-4.074-3.889-6.617-9.369-6.617-15.445c0-11.794,9.561-21.355,21.355-21.355c3.561,0,6.914,0.877,9.866,2.42
	c-6.824,3.565-11.484,10.704-11.484,18.935c0,6.077,2.542,11.556,6.617,15.445c-2.754,3.463-4.41,7.838-4.41,12.606V135L96.423,206
	L96.423,206z"/>
<path style="fill:#FFF9CF;" d="M470.353,186.457L470.353,186.457c-7.594,18.986-11.496,39.247-11.496,59.695v100.903H53.143V246.152
	c0-20.448-3.902-40.709-11.496-59.695l0,0c-3.312-8.28,4.905-16.496,13.184-13.184l0,0c18.986,7.594,39.246,11.496,59.694,11.496
	h282.949c20.448,0,40.708-3.902,59.694-11.496h0.001C465.449,169.96,473.665,178.177,470.353,186.457z"/>
<path style="fill:#FFEFB7;" d="M41.647,186.457c-3.312-8.28,4.905-16.496,13.184-13.184l0,0
	c18.986,7.594,39.246,11.496,59.694,11.496h10.961c-26.863,15.662-42.595,34.621-42.595,55.054
	c0,18.889,13.448,36.518,36.701,51.447H53.143v-45.118C53.143,225.703,49.241,205.443,41.647,186.457z"/>
<path style="fill:#FF595A;" d="M184.639,12.55l3.847,7.034c0.891,1.629,2.23,2.968,3.859,3.859l7.034,3.847
	c6.732,3.682,6.732,13.351,0,17.033l-7.034,3.847c-1.629,0.891-2.968,2.23-3.859,3.859l-3.847,7.034
	c-3.682,6.732-13.351,6.732-17.033,0l-3.847-7.034c-0.891-1.629-2.23-2.968-3.859-3.859l-7.034-3.847
	c-6.732-3.682-6.732-13.351,0-17.033l7.034-3.847c1.629-0.891,2.968-2.23,3.859-3.859l3.847-7.034
	C171.288,5.818,180.957,5.818,184.639,12.55z"/>
<path style="fill:#DE925F;" d="M407.43,472.044H104.57V360.472h302.86V472.044z"/>
<path style="fill:#EF9F67;" d="M78.5,360.472h50.714v139.175c0,2.681-2.173,4.854-4.854,4.854H83.353
	c-2.681,0-4.854-2.173-4.854-4.854V360.472H78.5z M382.786,360.472v139.175c0,2.681,2.173,4.854,4.854,4.854h41.007
	c2.681,0,4.854-2.173,4.854-4.854V360.472H382.786z"/>
<path style="fill:#FF4040;" d="M333.493,231.409L333.493,231.409c-15.978,22.986-36.358,42.572-59.96,57.623l-13.192,8.413
	c-2.647,1.688-6.034,1.688-8.681,0l-13.192-8.413c-23.602-15.052-43.983-34.638-59.96-57.623l0,0
	c-12.37-18.554-9.923-43.26,5.845-59.029l0,0c17.494-17.494,45.858-17.494,63.352,0l2.587,2.587c3.153,3.153,8.264,3.153,11.416,0
	l2.587-2.587c17.494-17.494,45.858-17.494,63.352,0l0,0C343.416,188.149,345.862,212.855,333.493,231.409z"/>
<path style="fill:#ED3C3C;" d="M258.093,298.427c-2.154,0.578-4.492,0.258-6.434-0.981l-13.192-8.413
	c-23.602-15.052-43.983-34.638-59.96-57.623l0,0c-12.37-18.555-9.923-43.261,5.845-59.029l0,0
	c12.456-12.456,30.419-16.034,46.048-10.754c-4.175,2.442-8.11,5.448-11.69,9.028l0,0c-20.305,20.305-23.455,52.119-7.527,76.012
	l0,0C224.559,265.909,240.344,283.286,258.093,298.427z"/>
<path style="fill:#FF507D;" d="M371.191,55.033L371.191,55.033c-10.526,15.143-23.953,28.046-39.502,37.963l-8.691,5.542
	c-1.744,1.112-3.975,1.112-5.719,0l-8.691-5.542c-15.549-9.916-28.976-22.82-39.502-37.963l0,0
	c-8.149-12.224-6.537-28.5,3.851-38.888l0,0c11.525-11.525,30.212-11.525,41.737,0l1.704,1.704c2.077,2.077,5.444,2.077,7.521,0
	l1.704-1.704c11.525-11.525,30.212-11.525,41.737,0l0,0C377.728,26.533,379.34,42.81,371.191,55.033z"/>
<path style="fill:#45DB77;" d="M459.926,283.406L459.926,283.406c26.76,9.731,44.574,35.164,44.574,63.639v43.856
	c0,22.407-18.164,40.571-40.571,40.571h-50.714c-15.28,0-28.581-8.45-35.5-20.929c-6.919,12.479-20.22,20.929-35.5,20.929H291.5
	c-15.28,0-28.581-8.45-35.5-20.929c-6.919,12.479-20.22,20.929-35.5,20.929h-50.714c-15.28,0-28.581-8.45-35.5-20.929
	c-6.919,12.479-20.22,20.929-35.5,20.929H48.071c-22.407,0-40.571-18.164-40.571-40.571v-43.856
	c0-28.475,17.814-53.907,44.574-63.639l0,0c7.417-2.697,15.249-4.077,23.141-4.077h361.569
	C444.677,279.33,452.509,280.709,459.926,283.406z"/>
<path style="fill:#FFFFFF;" d="M303.363,243.542l6.201,11.338c0.891,1.629,2.23,2.968,3.859,3.859l11.338,6.201
	c6.732,3.682,6.732,13.351,0,17.033l-11.338,6.201c-1.629,0.891-2.968,2.23-3.859,3.859l-6.201,11.338
	c-3.682,6.732-13.351,6.732-17.033,0l-6.201-11.338c-0.891-1.629-2.23-2.968-3.859-3.859l-11.338-6.201
	c-6.732-3.682-6.732-13.351,0-17.033l11.338-6.201c1.629-0.891,2.968-2.23,3.859-3.859l6.201-11.338
	C290.012,236.809,299.681,236.809,303.363,243.542z"/>
<path style="fill:#36BF6B;" d="M504.5,358.868v32.033c0,22.407-18.164,40.571-40.571,40.571h-50.714
	c-15.28,0-28.581-8.45-35.5-20.929c-6.919,12.479-20.22,20.929-35.5,20.929H291.5c-15.28,0-28.58-8.45-35.5-20.929
	c-6.92,12.479-20.22,20.929-35.5,20.929h-50.715c-15.28,0-28.581-8.45-35.5-20.929c-6.92,12.479-20.221,20.929-35.5,20.929H86.9
	H48.071c-0.825,0-1.642-0.032-2.454-0.081c-0.063-0.004-0.125-0.01-0.187-0.014c-0.785-0.05-1.563-0.125-2.336-0.22h-0.001l0,0
	C23.036,428.701,7.5,411.621,7.5,390.901v-43.856c0-28.475,17.814-53.907,44.574-63.638c7.417-2.697,15.249-4.077,23.141-4.077
	h38.828c-7.892,0-15.724,1.38-23.141,4.077c-26.76,9.731-44.574,35.164-44.574,63.638c0,0,0.001,0.096,0.002,0.28
	c0.191,28.826,23.614,52.102,52.44,52.114c0.01,0,0.015,0,0.015,0c15.28,0,28.581-8.45,35.5-20.929
	c6.92,12.479,20.22,20.929,35.5,20.929H220.5c15.28,0,28.58-8.45,35.5-20.929c6.92,12.479,20.22,20.929,35.5,20.929h50.714
	c15.28,0,28.581-8.45,35.5-20.929c6.92,12.479,20.221,20.929,35.5,20.929h50.714C486.336,399.439,504.5,381.275,504.5,358.868z"/>
<path d="M149.268,50.903l7.035,3.848c0.37,0.202,0.673,0.506,0.876,0.877l3.848,7.033c3.019,5.521,8.804,8.951,15.096,8.951
	c6.293,0,12.078-3.431,15.097-8.95l3.848-7.034c0.203-0.371,0.506-0.675,0.877-0.878l7.035-3.847
	c5.521-3.021,8.95-8.806,8.95-15.098c-0.001-6.293-3.431-12.077-8.951-15.096l-7.032-3.846c-0.372-0.203-0.676-0.507-0.879-0.88
	L191.22,8.95c-3.021-5.519-8.805-8.949-15.098-8.949c-6.292,0-12.076,3.43-15.096,8.949l-3.849,7.036
	c-0.202,0.371-0.506,0.675-0.876,0.877l-7.034,3.847c-5.521,3.019-8.95,8.803-8.951,15.096
	C140.316,42.098,143.746,47.883,149.268,50.903z M156.465,33.87l7.036-3.848c2.893-1.583,5.257-3.948,6.838-6.839l3.848-7.035
	c0.519-0.948,1.339-1.147,1.936-1.147c0.598,0,1.418,0.199,1.937,1.147c0,0,0,0,0,0.001l3.847,7.032
	c1.582,2.893,3.946,5.258,6.841,6.842l7.034,3.847c0.949,0.519,1.147,1.339,1.148,1.936c0,0.598-0.199,1.418-1.148,1.938
	l-7.033,3.846c-2.893,1.582-5.258,3.946-6.841,6.84l-3.848,7.035c-0.52,0.949-1.339,1.148-1.937,1.148
	c-0.597,0-1.416-0.199-1.936-1.149l-3.848-7.034c-1.583-2.894-3.948-5.258-6.84-6.839l-7.033-3.847
	c-0.95-0.52-1.149-1.34-1.149-1.938C155.317,35.209,155.516,34.389,156.465,33.87z M262.927,59.314
	c11.15,16.042,25.156,29.502,41.629,40.006l8.689,5.542c2.094,1.335,4.492,2.003,6.893,2.003c2.398,0,4.799-0.668,6.893-2.003
	l8.691-5.542c16.471-10.504,30.477-23.964,41.627-40.006c0.028-0.039,0.055-0.079,0.082-0.12
	c10.097-15.145,8.084-35.479-4.787-48.352c0,0,0-0.001-0.001-0.001c-14.43-14.43-37.913-14.43-52.345,0.002l-0.16,0.16l-0.162-0.162
	c-14.43-14.43-37.911-14.43-52.343,0c-12.871,12.872-14.885,33.207-4.788,48.353C262.871,59.233,262.898,59.274,262.927,59.314z
	 M278.239,21.448c8.583-8.582,22.548-8.581,31.129-0.002l1.707,1.708c4.997,4.995,13.129,4.994,18.128-0.003l1.702-1.703
	c8.585-8.582,22.55-8.58,31.131-0.001c7.816,7.817,9.054,20.157,2.952,29.368c-10.004,14.375-22.564,26.439-37.332,35.857
	l-7.518,4.794l-7.519-4.794c-14.768-9.418-27.328-21.481-37.333-35.857C269.187,41.605,270.423,29.265,278.239,21.448z
	 M466.357,277.902v-31.751c0-19.583,3.688-38.729,10.96-56.909c2.665-6.663,1.168-13.954-3.907-19.028
	c-5.074-5.074-12.365-6.569-19.027-3.905c-3.814,1.526-7.674,2.884-11.568,4.094v-45.545c0-4.189-0.936-8.249-2.71-11.958
	c3.103-4.601,4.917-10.139,4.917-16.094c0-15.911-12.944-28.855-28.855-28.855s-28.855,12.944-28.855,28.855
	c0,5.119,1.346,9.927,3.693,14.1c-2.462,4.23-3.76,9.014-3.76,13.952c0,1.457-1.186,2.643-2.643,2.643H220.569
	c-4.143,0-7.5,3.357-7.5,7.5s3.357,7.5,7.5,7.5H384.6c9.729,0,17.643-7.914,17.643-17.643c0-0.894,0.097-1.774,0.277-2.634
	c4.065,2.191,8.712,3.438,13.646,3.438c4.102,0,8.003-0.866,11.54-2.415c0.067,0.531,0.109,1.068,0.109,1.612v49.379
	c-9.943,2.01-20.081,3.032-30.34,3.032h-56.543c-2.209-3.645-4.865-7.075-7.981-10.191c-20.39-20.391-53.568-20.391-73.96,0
	l-2.587,2.587c-0.223,0.225-0.586,0.225-0.809,0l-2.587-2.587c-20.391-20.389-53.568-20.391-73.959,0
	c-3.116,3.116-5.772,6.547-7.981,10.191h-56.543c-10.259,0-20.396-1.022-30.34-3.031v-49.38c0-0.542,0.037-1.081,0.105-1.614
	c3.538,1.551,7.44,2.417,11.544,2.417c4.935,0,9.583-1.247,13.649-3.439c0.18,0.861,0.274,1.743,0.274,2.636
	c0,9.729,7.914,17.643,17.643,17.643h61.137c4.143,0,7.5-3.357,7.5-7.5s-3.357-7.5-7.5-7.5H127.4c-1.457,0-2.643-1.186-2.643-2.643
	c0-4.922-1.309-9.714-3.767-13.941c2.351-4.175,3.699-8.987,3.699-14.11c0-15.911-12.944-28.855-28.855-28.855
	S66.979,80.895,66.979,96.806c0,5.958,1.815,11.499,4.921,16.101c-1.772,3.718-2.714,7.797-2.714,11.951v45.545
	c-3.895-1.209-7.755-2.568-11.569-4.094c-6.663-2.664-13.953-1.169-19.027,3.906c-5.074,5.073-6.57,12.364-3.906,19.027
	c7.272,18.18,10.96,37.326,10.96,56.909v31.751C18.182,289.661,0,316.929,0,347.045v43.856c0,26.507,21.564,48.071,48.071,48.071H71
	v60.675c0,6.812,5.542,12.354,12.354,12.354h41.007c6.812,0,12.354-5.542,12.354-12.354v-20.104h238.572v20.104
	c0,6.812,5.542,12.354,12.354,12.354h41.007c6.812,0,12.354-5.542,12.354-12.354v-60.675h22.929
	c26.507,0,48.071-21.564,48.071-48.071v-43.856C512,316.929,493.818,289.661,466.357,277.902z M402.311,96.806
	c0-7.64,6.216-13.855,13.855-13.855s13.855,6.216,13.855,13.855s-6.216,13.855-13.855,13.855S402.311,104.445,402.311,96.806z
	 M95.834,82.95c7.64,0,13.855,6.216,13.855,13.855s-6.216,13.855-13.855,13.855s-13.855-6.216-13.855-13.855
	S88.194,82.95,95.834,82.95z M242.401,177.685l2.587,2.587c6.072,6.07,15.951,6.07,22.023,0l2.587-2.587
	c14.542-14.544,38.204-14.542,52.746,0c13.178,13.178,15.254,33.986,4.945,49.506c-4.405,6.334-9.226,12.446-14.338,18.256
	l-3.01-5.503c-3.019-5.521-8.804-8.951-15.096-8.951c-6.293,0-12.078,3.431-15.097,8.951l-6.201,11.337
	c-0.203,0.371-0.506,0.675-0.878,0.878l-11.338,6.201c-5.041,2.757-8.329,7.821-8.864,13.47h-25.392
	c-16.315-12.667-30.569-27.677-42.368-44.64c-10.306-15.52-8.23-36.328,4.947-49.505
	C204.196,163.143,227.859,163.141,242.401,177.685z M268.53,275.392c-0.948-0.519-1.147-1.339-1.147-1.937
	c0-0.597,0.199-1.417,1.147-1.936l11.337-6.2c2.894-1.582,5.259-3.947,6.842-6.841l6.201-11.338c0.52-0.949,1.339-1.148,1.937-1.148
	c0.597,0,1.416,0.199,1.936,1.148l6.201,11.339c1.582,2.892,3.947,5.257,6.84,6.839l11.338,6.201
	c0.949,0.52,1.148,1.339,1.148,1.936c0,0.598-0.199,1.417-1.148,1.937l-11.339,6.201c-2.893,1.583-5.258,3.948-6.839,6.841
	l-6.201,11.338c-0.519,0.948-1.339,1.147-1.936,1.147c-0.598,0-1.418-0.199-1.937-1.147l-6.2-11.337
	c-1.583-2.895-3.948-5.26-6.842-6.842L268.53,275.392z M49.195,180.821c0.459-0.46,1.439-1.148,2.851-0.585
	c19.959,7.983,40.979,12.032,62.479,12.032h50.303c-3.605,14.463-1.267,30.242,7.439,43.301c0.026,0.041,0.054,0.081,0.082,0.12
	c9.176,13.201,19.74,25.298,31.521,36.14H75.216c-4.918,0-9.788,0.494-14.573,1.44v-27.118c0-21.5-4.048-42.521-12.032-62.479
	C48.047,182.264,48.735,181.281,49.195,180.821z M86,497.001v-58.028h12.786c8.152,0,16.002-2.084,22.928-5.847v63.875H86z
	 M136.714,464.544v-38.786c8.808,8.351,20.591,13.215,33.072,13.215H220.5c13.661,0,26.498-5.814,35.5-15.666
	c9.002,9.852,21.839,15.666,35.5,15.666h50.714c12.481,0,24.264-4.864,33.072-13.215v38.786H136.714z M426,497.001h-35.714v-63.875
	c6.925,3.763,14.776,5.847,22.928,5.847H426V497.001z M497,390.901c0,18.235-14.836,33.071-33.071,33.071h-50.715
	c-12.014,0-23.104-6.539-28.941-17.066c-0.122-0.22-0.264-0.423-0.405-0.627v-29.911c0-4.143-3.357-7.5-7.5-7.5s-7.5,3.357-7.5,7.5
	v34.094c-6.188,8.42-16.058,13.51-26.653,13.51H291.5c-11.402,0-21.962-5.897-28-15.496v-32.108c0-4.143-3.357-7.5-7.5-7.5
	s-7.5,3.357-7.5,7.5v32.108c-6.038,9.599-16.598,15.496-28,15.496h-50.714c-11.403,0-21.964-5.897-28-15.497v-32.108
	c0-4.143-3.357-7.5-7.5-7.5s-7.5,3.357-7.5,7.5v32.108c-6.038,9.599-16.598,15.496-28,15.496H48.071
	C29.836,423.973,15,409.137,15,390.901v-43.856c0-25.227,15.929-47.969,39.638-56.59c6.615-2.406,13.539-3.626,20.578-3.626h183.56
	c0.793,0.641,1.643,1.223,2.557,1.723l11.339,6.202c0.37,0.202,0.674,0.506,0.877,0.877l6.201,11.338
	c3.02,5.521,8.804,8.95,15.097,8.95c6.292,0,12.076-3.43,15.096-8.95l6.202-11.339c0.202-0.371,0.506-0.674,0.876-0.877
	l11.338-6.201c5.521-3.019,8.951-8.804,8.951-15.097c0-6.292-3.431-12.077-8.951-15.096l-4.568-2.499
	c5.667-6.403,10.993-13.168,15.861-20.171c0.027-0.04,0.055-0.08,0.081-0.12c8.706-13.059,11.044-28.838,7.44-43.301h50.302
	c21.499,0,42.52-4.048,62.48-12.033c1.408-0.562,2.389,0.126,2.85,0.585c0.46,0.461,1.148,1.443,0.585,2.852
	c-7.983,19.959-12.032,40.979-12.032,62.479v27.118c-4.786-0.946-9.655-1.44-14.573-1.44h-70.609c-4.143,0-7.5,3.357-7.5,7.5
	s3.357,7.5,7.5,7.5h70.609c7.039,0,13.963,1.22,20.578,3.626c23.709,8.621,39.638,31.363,39.638,56.59v43.856H497z"/>
<g>
</g>
<g>
</g>
<g>
</g>
<g>
</g>
<g>
</g>
<g>
</g>
<g>
</g>
<g>
</g>
<g>
</g>
<g>
</g>
<g>
</g>
<g>
</g>
<g>
</g>
<g>
</g>
<g>
</g>
</svg>
