<?xml version="1.0" encoding="iso-8859-1"?>
<!-- Generator: Adobe Illustrator 19.0.0, SVG Export Plug-In . SVG Version: 6.00 Build 0)  -->
<svg version="1.1" id="Capa_1" xmlns="http://www.w3.org/2000/svg" xmlns:xlink="http://www.w3.org/1999/xlink" x="0px" y="0px"
	 viewBox="0 0 512.001 512.001" style="enable-background:new 0 0 512.001 512.001;" xml:space="preserve" height="80">
<path style="fill:#3180B5;" d="M504.369,309.715c0,92.081-64.05,169.2-150.034,189.23c-14.219,3.318-29.048,5.069-44.274,5.069
	c-107.307,0-194.299-86.992-194.299-194.299c0-107.317,86.992-194.309,194.299-194.309c15.226,0,30.056,1.751,44.274,5.069
	C440.319,140.505,504.369,217.624,504.369,309.715z"/>
<path style="fill:#428FCE;" d="M504.369,309.715c0,92.081-64.05,169.2-150.034,189.23c-85.984-20.03-150.034-97.149-150.034-189.23
	c0-92.091,64.05-169.21,150.034-189.24C440.319,140.505,504.369,217.624,504.369,309.715z"/>
<g>
	<path style="fill:#38A877;" d="M139.06,402.047c-14.86-27.46-23.298-58.91-23.298-92.325c0-30.758,7.145-59.847,19.878-85.699
		c0,0,49.099,12.366,58.259,44.427c9.16,32.051-36.57,53.424-18.249,71.745S139.06,402.047,139.06,402.047z"/>
	<path style="fill:#38A877;" d="M233.614,488.398c-33.14-14.188-61.536-37.343-82.147-66.402c0,0,35.633-33.71,51.664-17.679
		c16.02,16.03,7.623,35.114,44.264,44.274C284.036,457.752,265.624,488.398,233.614,488.398z"/>
	<path style="fill:#38A877;" d="M341.226,117.897v0.01c-55.674,55.664-109.424,13.924-109.424,13.924l0.041-0.031
		c23.929-10.534,50.391-16.387,78.218-16.387C320.667,115.414,331.079,116.258,341.226,117.897z"/>
</g>
<path style="fill:#50C98A;" d="M500.645,347.758c-8.051,40.631-28.794,76.702-57.903,103.918l-0.02-0.01
	c-63.633-30.504-47.236-68.722-18.239-126.737c29.007-58.005-41.211-44.264-61.058-108.386s44.753-74.564,44.753-74.564h0.01
	c39.847,23.359,70.636,60.508,85.791,104.905c0,0-20.641,24.621-20.641,52.091c0,27.481,27.287,48.824,27.287,48.824
	L500.645,347.758z"/>
<polygon style="fill:#A6C8E8;" points="114.439,199.057 92.984,220.512 75.599,191.395 47.535,163.331 18.417,145.946
	39.872,124.49 71.817,129.388 109.542,167.113 "/>
<g>
	<polygon style="fill:#81A9C9;" points="83.733,141.305 54.621,170.417 47.535,163.331 18.417,145.946 39.872,124.49
		71.817,129.388 	"/>
	<path style="fill:#81A9C9;" d="M167.275,30.865l12.218-13.235c11.555-12.512,31.196-12.904,43.241-0.858
		c11.752,11.752,11.66,30.749,0.012,42.396c-0.282,0.282-0.576,0.564-0.876,0.84l-13.235,12.218"/>
</g>
<polygon style="fill:#A6C8E8;" points="222.831,206.083 197.085,231.829 132.658,145.382 94.081,106.805 68.948,88.071
	7.634,42.377 33.38,16.631 107.113,47.49 137.789,60.326 179.136,101.674 "/>
<polygon style="fill:#81A9C9;" points="157.068,79.605 110.589,123.314 94.081,106.805 68.948,88.071 107.113,47.49 137.789,60.326
	"/>
<path style="fill:#A6C8E8;" d="M55.488,184.012L55.488,184.012c-9.743-9.743-9.986-25.465-0.546-35.504L160.997,35.726
	c11.7-12.442,31.37-12.744,43.446-0.668l0,0c12.076,12.076,11.774,31.746-0.668,43.446L90.992,184.558
	C80.954,193.998,65.232,193.756,55.488,184.012z"/>
<path style="fill:#81A9C9;" d="M66.589,160.156L172.643,47.373c9.741-10.359,25.005-12.294,36.815-5.683
	c-1.328-2.374-2.994-4.611-5.016-6.631l0,0c-12.076-12.076-31.746-11.774-43.446,0.668L54.943,148.508
	c-9.439,10.039-9.198,25.76,0.546,35.504l0,0c2.037,2.037,4.337,3.653,6.79,4.857C57.72,179.589,59.124,168.096,66.589,160.156z"/>
<path d="M310.063,107.774c-33.617,0-66.902,8.429-96.26,24.377c-3.705,2.012-5.076,6.647-3.065,10.351
	c2.011,3.704,6.645,5.078,10.352,3.064c3.271-1.777,6.597-3.447,9.969-5.021c5.81,3.665,17.681,10.054,33.298,12.715
	c4.29,0.732,9.041,1.203,14.16,1.203c18.452,0,41.675-6.142,65.219-28.373c15.686,2.869,30.691,7.711,44.754,14.249
	c-2.457,1.111-5.018,2.413-7.593,3.937c-17.78,10.525-27.739,26.38-28.802,45.851c-0.23,4.21,2.997,7.809,7.207,8.038
	c0.141,0.008,0.282,0.011,0.422,0.011c4.025,0,7.393-3.15,7.615-7.218c1.611-29.538,30.33-38.719,39.391-40.888
	c35.935,21.841,63.95,55.468,78.639,95.475c-6.006,8.235-19.664,29.578-19.664,53.423c0,24.626,18.462,44.248,26.539,51.658
	c-10.608,47.623-39.562,89.516-81.847,116.522c-3.553,2.269-4.594,6.989-2.325,10.542c1.458,2.28,3.923,3.526,6.441,3.526
	c1.407,0,2.828-0.389,4.102-1.201c58.474-37.345,93.383-101.012,93.383-170.307C512.001,198.363,421.412,107.774,310.063,107.774z
	 M249.534,133.122c19.391-6.625,39.888-10.08,60.529-10.08c4.387,0,8.735,0.164,13.046,0.463
	C292.937,145.774,265.154,139.88,249.534,133.122z M493.008,328.997c-5.49-7.057-12.035-17.995-12.035-30.025
	c0-12.92,5.286-25.39,10.263-34.266c3.584,14.42,5.498,29.493,5.498,45.006c0,7.492-0.459,14.908-1.325,22.227
	C494.618,331.013,493.814,330.033,493.008,328.997z"/>
<path d="M386.673,479.989c-24.137,10.877-49.912,16.392-76.611,16.392c-17.538,0-34.517-2.436-50.621-6.979
	c8.662-5.008,14.601-12.447,15.642-20.895c0.584-4.751,0.45-20.761-25.833-27.332c-20.488-5.122-23.845-12.604-28.489-22.96
	c-2.695-6.009-5.751-12.819-12.236-19.305c-16.241-16.242-42.801,1.384-55.493,11.628c-1.427-2.216-2.802-4.467-4.137-6.745
	c11.458-9.824,36.979-33.768,38.087-53.01c0.359-6.22-1.694-11.75-5.936-15.992c-3.869-3.869-2.77-7.388,6.53-20.924
	c8.573-12.476,19.241-28.004,13.663-47.526c-7.74-27.092-38.884-41.311-54.612-46.887c2.677-4.835,5.572-9.567,8.693-14.182
	c2.361-3.492,1.445-8.238-2.048-10.599c-3.49-2.361-8.236-1.445-10.599,2.047c-22.6,33.42-34.546,72.491-34.546,112.99
	c0,111.349,90.589,201.937,201.937,201.937c28.875,0,56.762-5.968,82.883-17.74c3.843-1.732,5.556-6.252,3.824-10.096
	C395.038,479.968,390.517,478.257,386.673,479.989z M139.725,233.239c4.595,1.556,11.331,4.136,18.316,7.858
	c10.819,5.764,24.549,15.551,28.518,29.439c3.603,12.609-4.109,23.833-11.566,34.687c-8.184,11.912-18.37,26.738-4.743,40.365
	c0.813,0.813,1.626,1.961,1.491,4.315c-0.366,6.404-7.062,16.842-18.368,28.636c-4.224,4.406-8.45,8.348-11.849,11.375
	c-11.616-24.312-18.13-51.51-18.13-80.203C123.392,283.081,128.984,257.123,139.725,233.239z M161.856,423.061
	c11.075-9.006,29.05-20.179,35.874-13.355c4.501,4.5,6.735,9.483,9.101,14.758c5.172,11.532,11.036,24.602,38.716,31.522
	c9.392,2.348,14.904,6.432,14.384,10.655c-0.699,5.681-10.373,13.502-24.716,14.057
	C206.151,467.928,180.944,447.961,161.856,423.061z"/>
<path d="M411.022,262.797c-15.118-10.544-32.252-22.495-40.308-48.52c-1.249-4.027-5.524-6.282-9.55-5.035
	c-4.027,1.247-6.282,5.522-5.035,9.549c9.606,31.033,29.875,45.169,46.159,56.528c19.583,13.659,28.521,19.893,15.372,46.192
	c-23.405,46.812-45.513,91.027,0.321,124.491c1.359,0.991,2.934,1.469,4.496,1.469c2.354,0,4.677-1.086,6.171-3.133
	c2.485-3.405,1.74-8.181-1.664-10.667c-32.059-23.406-23.3-50.07,4.331-105.332C450.365,290.238,430.365,276.288,411.022,262.797z"
	/>
<path d="M121.984,197.901l-4.286-27.977l13.952-13.119l59.317,79.582c1.325,1.777,3.358,2.892,5.568,3.051
	c0.185,0.013,0.369,0.02,0.554,0.02c2.015,0,3.96-0.799,5.397-2.236l25.745-25.745c2.189-2.19,2.84-5.487,1.644-8.344
	l-41.651-99.527c0,0,39.615-38.735,39.919-39.04c7.084-7.083,10.992-16.511,11.006-26.547c0.013-10.065-3.899-19.528-11.016-26.644
	c-7.308-7.307-16.978-11.209-27.353-11.015c-10.264,0.204-19.757,4.443-26.755,11.942L135.913,51.26L36.327,9.585
	c-2.859-1.196-6.155-0.546-8.345,1.644L2.236,36.976c-1.567,1.567-2.376,3.739-2.216,5.95c0.161,2.212,1.274,4.243,3.051,5.568
	l79.63,59.351L69.975,121.38l-28.946-4.436c-2.407-0.369-4.837,0.43-6.554,2.148l-21.455,21.455
	c-1.664,1.664-2.467,4.003-2.177,6.339c0.289,2.336,1.641,4.407,3.662,5.613l25.883,15.452c0.322,5.38,1.971,10.691,4.927,15.439
	l-8.097,8.097c-2.981,2.981-2.981,7.814,0,10.795c1.491,1.491,3.444,2.236,5.398,2.236c1.953,0,3.907-0.745,5.398-2.236l8.097-8.097
	c4.676,2.912,9.897,4.55,15.195,4.906l15.125,25.334c1.207,2.02,3.277,3.372,5.613,3.662c0.316,0.039,0.629,0.058,0.941,0.058
	c2.012,0,3.958-0.796,5.398-2.236l21.455-21.455C121.555,202.737,122.353,200.303,121.984,197.901z M201.082,15.624
	c6.111-0.12,11.911,2.203,16.254,6.545c4.229,4.228,6.553,9.849,6.545,15.829c-0.006,4.311-1.236,8.423-3.497,11.966
	c-1.309-7.648-4.926-14.689-10.542-20.305c-5.618-5.618-12.633-9.237-20.292-10.544C192.965,16.936,196.909,15.706,201.082,15.624z
	 M19.275,41.528l15.882-15.882l89.586,37.491L93.229,96.649L19.275,41.528z M42.537,132.621l14.743,2.258l-7.898,8.4
	c-2.497,2.654-4.466,5.605-5.929,8.723l-12.708-7.588L42.537,132.621z M105.941,133.561c-2.981-2.98-7.814-2.981-10.796,0
	L56.696,172.01c-2.214-6.125-0.973-13.188,3.808-18.272L167.154,40.381c4.168-4.126,9.644-6.46,15.542-6.551
	c6.142-0.109,11.982,2.257,16.349,6.625c4.367,4.367,6.721,10.174,6.626,16.35c-0.091,5.884-2.413,11.349-6.522,15.512
	l-42.803,40.308c-3.072,2.889-3.22,7.719-0.332,10.791c2.889,3.073,7.72,3.219,10.791,0.332l9.542-8.973l37.466,89.528
	l-15.882,15.882l-55.087-73.907l8.999-8.463c3.072-2.889,3.22-7.719,0.332-10.791c-2.89-3.072-7.721-3.219-10.791-0.332
	l-13.888,13.059c-0.006,0.006-0.012,0.011-0.018,0.017l-23.108,21.729c-0.003,0.003-0.007,0.006-0.01,0.009l-18.599,17.489
	c-2.979,2.801-6.642,4.379-10.396,4.771c-0.28,0.008-0.561,0.03-0.841,0.069c-2.378,0.135-4.768-0.214-7.035-1.033l38.45-38.45
	C108.922,141.375,108.922,136.542,105.941,133.561z M94.514,208.185l-7.195-12.051c3.184-1.471,6.195-3.471,8.902-6.015l7.978-7.501
	l2.11,13.775L94.514,208.185z"/>
<g>
</g>
<g>
</g>
<g>
</g>
<g>
</g>
<g>
</g>
<g>
</g>
<g>
</g>
<g>
</g>
<g>
</g>
<g>
</g>
<g>
</g>
<g>
</g>
<g>
</g>
<g>
</g>
<g>
</g>
</svg>
