<?xml version="1.0" encoding="iso-8859-1"?>
<!-- Generator: Adobe Illustrator 19.0.0, SVG Export Plug-In . SVG Version: 6.00 Build 0)  -->
<svg version="1.1" id="Capa_1" xmlns="http://www.w3.org/2000/svg" xmlns:xlink="http://www.w3.org/1999/xlink" x="0px" y="0px"
	 viewBox="0 0 496 496" style="enable-background:new 0 0 496 496;" xml:space="preserve" height="80">
<g>
	<path style="fill:#333333;" d="M194.52,440h-13.048c-11.84,0-21.472-9.632-21.472-21.48v-37.64c0-5.016,1.768-9.904,4.984-13.76
		L200,325.104v-26.576l-49.84-71.208c-1.456-2.08-3.84-3.32-6.376-3.32C130.664,224,120,213.336,120,200.216v-8.44
		C120,178.664,130.664,168,143.784,168h20.496c3.672,0,7.352,0.872,10.64,2.512l41.928,20.96c3.136,1.584,7.152-0.928,7.152-4.416
		V157.36c0-1.32-0.512-2.568-1.448-3.504l-24.416-24.416c-3.96-3.944-6.136-9.208-6.136-14.8V82.616
		c0-9.952,7.08-18.584,16.832-20.536l146.6-29.32L371.2,11.736C376.704,4.384,385.48,0,394.664,0C410.84,0,424,13.16,424,29.336
		v16.952l67.072,149.04c3.264,7.272,4.928,15,4.928,22.976V336c0,22.056-17.944,40-40,40h-87.016l-148.832,37.2
		c-2.448,0.624-4.152,2.8-4.152,5.32C216,430.368,206.368,440,194.52,440z M143.784,184c-4.288,0-7.784,3.496-7.784,7.784v8.44
		c0,4.28,3.496,7.776,7.784,7.776c7.752,0,15.04,3.792,19.488,10.144L216,293.48v37.424l-38.728,46.48
		c-0.824,0.968-1.272,2.216-1.272,3.496v37.64c0,3.024,2.456,5.48,5.48,5.48h13.048c3.016,0,5.472-2.456,5.472-5.48
		c0-9.872,6.688-18.448,16.264-20.832L368,360h88c13.232,0,24-10.768,24-24V218.304c0-5.696-1.184-11.216-3.52-16.416L408,49.72
		V29.336C408,21.984,402.016,16,394.664,16c-4.168,0-8.16,1.992-10.664,5.336l-19.44,25.912L211.976,77.76
		c-2.304,0.464-3.976,2.504-3.976,4.856v32.024c0,1.32,0.512,2.568,1.448,3.504l24.416,24.416c3.96,3.944,6.136,9.208,6.136,14.8
		v29.688c0,11.56-9.392,20.952-20.944,20.952c-3.232,0-6.472-0.768-9.368-2.208l-41.936-20.968c-1.08-0.536-2.272-0.824-3.48-0.824
		H143.784z"/>
	<path style="fill:#333333;" d="M96,496H32c-17.648,0-32-14.352-32-32s14.352-32,32-32h8.808c3.712-18.232,19.88-32,39.192-32h16
		c22.056,0,40,17.944,40,40v16C136,478.056,118.056,496,96,496z M32,448c-8.824,0-16,7.176-16,16s7.176,16,16,16h64
		c13.232,0,24-10.768,24-24v-16c0-13.232-10.768-24-24-24H80c-13.232,0-24,10.768-24,24v8H32z"/>
</g>
<path style="fill:#FFA64D;" d="M352,336c-12.92,0-24.536-7.176-30.312-18.736l-48.64-97.288C267.136,208.16,264,194.904,264,181.664
	C264,134.432,302.432,96,349.664,96h4.672C401.568,96,440,134.432,440,181.664c0,13.24-3.136,26.496-9.048,38.312l-48.64,97.288
	C376.536,328.824,364.92,336,352,336z"/>
<g>
	<path style="fill:#333333;" d="M352,232c-26.472,0-48-21.528-48-48s21.528-48,48-48s48,21.528,48,48S378.472,232,352,232z M352,152
		c-17.648,0-32,14.352-32,32s14.352,32,32,32s32-14.352,32-32S369.648,152,352,152z"/>
	<rect x="344" y="248" style="fill:#333333;" width="16" height="16"/>
</g>
<g>
</g>
<g>
</g>
<g>
</g>
<g>
</g>
<g>
</g>
<g>
</g>
<g>
</g>
<g>
</g>
<g>
</g>
<g>
</g>
<g>
</g>
<g>
</g>
<g>
</g>
<g>
</g>
<g>
</g>
</svg>
